<svg width="20" height="20" viewBox="0 0 20 20" fill="none" xmlns="http://www.w3.org/2000/svg">
<g id="Spinner">
<path id="Icon" d="M9.99748 17.9163C8.9137 17.9163 7.89062 17.7087 6.92825 17.2934C5.96587 16.8781 5.12544 16.3112 4.40694 15.5927C3.68845 14.8742 3.12157 14.0338 2.70629 13.0714C2.29101 12.1091 2.08337 11.086 2.08337 10.0022C2.08337 8.9052 2.29144 7.87758 2.70758 6.91936C3.12371 5.96115 3.69021 5.12361 4.40708 4.40672C5.12397 3.68984 5.96455 3.12334 6.92883 2.70722C7.89312 2.29108 8.91685 2.08301 10 2.08301C10.1771 2.08301 10.3255 2.14293 10.4453 2.26278C10.5651 2.38263 10.625 2.53113 10.625 2.70828C10.625 2.88545 10.5651 3.03386 10.4453 3.15351C10.3255 3.27316 10.1771 3.33299 10 3.33299C8.1528 3.33299 6.57988 3.98229 5.28127 5.2809C3.98266 6.57952 3.33335 8.15243 3.33335 9.99965C3.33335 11.8469 3.98266 13.4198 5.28127 14.7184C6.57988 16.017 8.1528 16.6663 10 16.6663C11.8472 16.6663 13.4202 16.017 14.7188 14.7184C16.0174 13.4198 16.6667 11.8469 16.6667 9.99965C16.6667 9.82231 16.7266 9.67381 16.8465 9.55415C16.9663 9.4345 17.1148 9.37468 17.292 9.37468C17.4691 9.37468 17.6175 9.43457 17.7372 9.55436C17.8568 9.67414 17.9167 9.82257 17.9167 9.99965C17.9167 11.0828 17.7086 12.1066 17.2925 13.0708C16.8763 14.0351 16.3098 14.8757 15.593 15.5926C14.8761 16.3095 14.0385 16.876 13.0803 17.2921C12.1221 17.7082 11.0945 17.9163 9.99748 17.9163Z" fill="#2BAAFF"/>
</g>
</svg>
